<svg width="736" height="754" viewBox="0 0 736 754" fill="none" xmlns="http://www.w3.org/2000/svg">
<path d="M269.013 584.929L674.871 415.556L623.825 587.789L224.743 753.592L60.9709 358.857L103.369 181.784L269.013 584.929Z" fill="black"/>
<path d="M672.196 389.177L284.89 549.605L123.687 160.427L510.993 0.00017011L672.196 389.177ZM345.93 308.926L355.634 332.277L333.223 341.59L323.518 318.24L231.458 356.5L297.941 516.466L343.836 497.391L334.243 474.308L357.325 464.716L366.919 487.798L457.637 450.095L410.173 335.892L391.155 290.13L345.93 308.926ZM550.712 223.81L413.963 280.643L480.445 440.608L594.782 393.089L585.357 370.41L608.036 360.984L617.462 383.664L640.141 374.238L630.716 351.558L608.036 360.984L598.332 337.634L621.011 328.208L573.659 214.273L550.712 223.81ZM156.585 174.057L223.068 334.022L382.763 267.651L335.301 153.449L288.657 172.833L269.639 127.071L156.585 174.057ZM366.561 166.577L404.487 257.832L564.184 191.461L526.258 100.206L366.561 166.577ZM338.118 98.1368L357.081 143.764L516.777 77.3937L497.814 31.7662L338.118 98.1368Z" fill="black"/>
</svg>
