<svg width="751" height="337" viewBox="0 0 751 337" fill="none" xmlns="http://www.w3.org/2000/svg">
<path d="M409.701 75.2017V248.928H387.985V75.2017H409.701ZM453.245 123.459V248.928H431.529V123.459H453.245ZM458.071 75.2017V104.156H426.704V75.2017H458.071ZM475.074 123.459H496.79V143.727C496.79 144.692 497.273 145.175 498.238 145.175C499.203 145.175 499.927 144.692 500.409 143.727C504.27 136.006 509.417 130.135 515.852 126.113C522.447 121.931 531.374 119.84 542.634 119.84C557.755 119.84 569.578 124.263 578.104 133.111C586.629 141.797 590.892 154.263 590.892 170.51V248.928H569.176V174.129C569.176 162.708 566.281 154.022 560.49 148.07C554.699 142.119 546.334 139.143 535.396 139.143C523.01 139.143 513.439 142.923 506.683 150.483C500.088 157.883 496.79 168.982 496.79 183.781V248.928H475.074V123.459ZM733.308 294.773H711.592V227.454C711.592 226.489 711.109 226.006 710.144 226.006C709.179 226.006 708.375 226.649 707.731 227.936C699.367 244.344 684.889 252.548 664.3 252.548C653.844 252.548 644.031 250.054 634.863 245.068C625.855 240.081 618.455 232.601 612.664 222.628C607.034 212.494 604.219 200.349 604.219 186.194C604.219 172.038 607.034 159.974 612.664 150.001C618.455 139.867 625.855 132.306 634.863 127.32C644.031 122.333 653.844 119.84 664.3 119.84C685.372 119.84 700.251 128.607 708.938 146.14C709.581 147.427 710.466 148.07 711.592 148.07C712.557 148.07 713.2 147.507 713.522 146.381L718.83 123.459H733.308V294.773ZM712.798 186.194C712.798 171.395 708.777 159.893 700.734 151.69C692.852 143.325 682.396 139.143 669.367 139.143C656.337 139.143 645.801 143.325 637.758 151.69C629.876 159.893 625.935 171.395 625.935 186.194C625.935 200.993 629.876 212.574 637.758 220.939C645.801 229.143 656.337 233.245 669.367 233.245C682.396 233.245 692.852 229.143 700.734 220.939C708.777 212.574 712.798 200.993 712.798 186.194Z" fill="white"/>
<path d="M122.377 260.919L303.418 185.367L280.648 262.194L102.63 336.154L29.5759 160.075L48.4883 81.0884L122.377 260.919Z" fill="white"/>
<path d="M302.224 173.6L129.459 245.162L57.5511 71.562L230.317 0.00021103L302.224 173.6ZM156.687 137.801L161.016 148.218L151.019 152.372L146.69 141.956L105.625 159.023L135.281 230.379L155.753 221.871L151.474 211.574L161.77 207.295L166.049 217.591L206.516 200.773L185.344 149.83L176.86 129.418L156.687 137.801ZM248.034 99.8353L187.034 125.187L216.69 196.542L267.692 175.345L263.488 165.229L273.605 161.024L277.809 171.141L287.926 166.937L283.721 156.82L273.605 161.024L269.276 150.608L279.393 146.404L258.271 95.5812L248.034 99.8353ZM72.2265 77.6422L101.881 148.998L173.118 119.392L151.946 68.4489L131.14 77.0965L122.656 56.6838L72.2265 77.6422ZM165.89 74.3056L182.808 115.011L254.043 85.405L237.126 44.6992L165.89 74.3056ZM153.203 43.7753L161.661 64.1288L232.897 34.5224L224.438 14.1693L153.203 43.7753Z" fill="white"/>
</svg>
