<svg width="754" height="772" viewBox="0 0 754 772" fill="none" xmlns="http://www.w3.org/2000/svg">
<path d="M275.469 598.967L691.068 425.529L638.797 601.895L230.137 771.678L62.4342 367.469L105.85 186.147L275.469 598.967Z" fill="white"/>
<path d="M688.328 398.517L291.727 562.794L126.656 164.277L523.256 1.90787e-05L688.328 398.517ZM354.232 316.34L364.169 340.251L341.221 349.788L331.283 325.878L237.013 365.056L305.091 528.86L352.089 509.328L342.266 485.692L365.901 475.869L375.724 499.505L468.621 460.897L420.018 343.953L400.543 297.093L354.232 316.34ZM563.929 229.181L423.899 287.378L491.976 451.183L609.058 402.523L599.406 379.3L622.629 369.647L632.282 392.872L655.505 383.22L645.854 359.996L622.629 369.647L612.692 345.737L635.916 336.084L587.428 219.415L563.929 229.181ZM160.343 178.234L228.422 342.038L391.951 274.075L343.348 157.131L295.586 176.982L276.111 130.121L160.343 178.234ZM375.359 170.574L414.196 264.02L577.725 196.056L538.889 102.611L375.359 170.574ZM346.232 100.492L365.651 147.214L529.18 79.2512L509.762 32.5291L346.232 100.492Z" fill="white"/>
</svg>
