<svg width="751" height="337" viewBox="0 0 751 337" fill="none" xmlns="http://www.w3.org/2000/svg">
<path d="M409.7 75.2017V248.928H387.984V75.2017H409.7ZM453.245 123.459V248.928H431.529V123.459H453.245ZM458.071 75.2017V104.156H426.703V75.2017H458.071ZM475.074 123.459H496.79V143.727C496.79 144.692 497.272 145.175 498.237 145.175C499.203 145.175 499.926 144.692 500.409 143.727C504.27 136.006 509.417 130.135 515.851 126.113C522.447 121.931 531.374 119.84 542.634 119.84C557.755 119.84 569.578 124.263 578.103 133.111C586.629 141.797 590.892 154.263 590.892 170.51V248.928H569.176V174.129C569.176 162.708 566.28 154.022 560.489 148.07C554.699 142.119 546.334 139.143 535.396 139.143C523.01 139.143 513.439 142.923 506.682 150.483C500.087 157.883 496.79 168.982 496.79 183.781V248.928H475.074V123.459ZM733.307 294.773H711.592V227.454C711.592 226.489 711.109 226.006 710.144 226.006C709.179 226.006 708.374 226.649 707.731 227.936C699.366 244.344 684.889 252.548 664.299 252.548C653.844 252.548 644.031 250.054 634.862 245.068C625.854 240.081 618.455 232.601 612.664 222.628C607.034 212.494 604.219 200.349 604.219 186.194C604.219 172.038 607.034 159.974 612.664 150.001C618.455 139.867 625.854 132.306 634.862 127.32C644.031 122.333 653.844 119.84 664.299 119.84C685.372 119.84 700.251 128.607 708.937 146.14C709.581 147.427 710.466 148.07 711.592 148.07C712.557 148.07 713.2 147.507 713.522 146.381L718.83 123.459H733.307V294.773ZM712.798 186.194C712.798 171.395 708.777 159.893 700.734 151.69C692.852 143.325 682.396 139.143 669.366 139.143C656.337 139.143 645.801 143.325 637.758 151.69C629.876 159.893 625.935 171.395 625.935 186.194C625.935 200.993 629.876 212.574 637.758 220.939C645.801 229.143 656.337 233.245 669.366 233.245C682.396 233.245 692.852 229.143 700.734 220.939C708.777 212.574 712.798 200.993 712.798 186.194Z" fill="black"/>
<path d="M120.377 260.919L301.417 185.367L278.648 262.194L100.629 336.154L27.5757 160.075L46.4881 81.0884L120.377 260.919Z" fill="black"/>
<path d="M300.224 173.6L127.458 245.162L55.5509 71.562L228.316 0.00021103L300.224 173.6ZM154.687 137.801L159.016 148.218L149.019 152.372L144.69 141.956L103.624 159.023L133.28 230.379L153.753 221.871L149.474 211.574L159.769 207.295L164.049 217.591L204.516 200.773L183.344 149.83L174.86 129.418L154.687 137.801ZM246.033 99.8353L185.034 125.187L214.69 196.542L265.692 175.345L261.488 165.229L271.605 161.024L275.809 171.141L285.926 166.937L281.721 156.82L271.605 161.024L267.276 150.608L277.393 146.404L256.271 95.5812L246.033 99.8353ZM70.2262 77.6422L99.881 148.998L171.117 119.392L149.945 68.4489L129.14 77.0965L120.656 56.6838L70.2262 77.6422ZM163.89 74.3056L180.807 115.011L252.043 85.405L235.126 44.6992L163.89 74.3056ZM151.202 43.7753L159.661 64.1288L230.897 34.5224L222.438 14.1693L151.202 43.7753Z" fill="black"/>
</svg>
